<?xml version="1.0" standalone="no"?><!DOCTYPE svg PUBLIC "-//W3C//DTD SVG 1.1//EN" "http://www.w3.org/Graphics/SVG/1.1/DTD/svg11.dtd"><svg t="1700975127359" class="icon" viewBox="0 0 1024 1024" version="1.1" xmlns="http://www.w3.org/2000/svg" p-id="2620" xmlns:xlink="http://www.w3.org/1999/xlink" width="16" height="16"><path d="M859.136 51.712h-253.952c-38.4 0-72.704 19.456-93.184 48.64-20.48-29.184-54.784-48.64-93.184-48.64H164.864C102.4 51.712 51.2 102.912 51.2 165.376v627.2c0 62.976 51.2 113.664 113.664 113.664h211.456c32.256 41.472 81.92 65.536 135.168 65.536 52.736 0 102.4-24.576 135.168-65.536h211.456c62.976 0 113.664-51.2 113.664-113.664V165.376c1.024-62.464-50.176-113.664-112.64-113.664zM931.84 792.576c0 39.936-32.768 72.704-72.704 72.704h-222.208c-6.656 0-13.312 3.584-16.896 8.704-24.576 35.328-64.512 56.832-107.52 56.832s-83.456-20.992-107.52-56.832c-3.584-5.632-10.24-8.704-16.896-8.704H165.888c-39.936 0-72.704-32.768-72.704-72.704V165.376c0-39.936 32.768-72.704 72.704-72.704H419.84c39.936 0 72.704 32.768 72.704 72.704V629.76c0 11.264 9.216 20.48 20.48 20.48s20.48-9.216 20.48-20.48V165.376c0-39.936 32.768-72.704 72.704-72.704H860.16c39.936 0 72.704 32.768 72.704 72.704v627.2z" fill="#262435" p-id="2621"></path><path d="M367.104 241.152H215.04c-11.264 0-20.48 9.216-20.48 20.48s9.216 20.48 20.48 20.48h151.552c11.264 0 20.48-9.216 20.48-20.48s-8.704-20.48-19.968-20.48zM367.104 457.216H215.04c-11.264 0-20.48 9.216-20.48 20.48s9.216 20.48 20.48 20.48h151.552c11.264 0 20.48-9.216 20.48-20.48s-8.704-20.48-19.968-20.48zM367.104 672.768H215.04c-11.264 0-20.48 9.216-20.48 20.48s9.216 20.48 20.48 20.48h151.552c11.264 0 20.48-9.216 20.48-20.48 0.512-11.264-8.704-20.48-19.968-20.48zM807.936 241.152h-151.552c-11.264 0-20.48 9.216-20.48 20.48s9.216 20.48 20.48 20.48h151.552c11.264 0 20.48-9.216 20.48-20.48s-9.216-20.48-20.48-20.48zM807.936 457.216h-151.552c-11.264 0-20.48 9.216-20.48 20.48s9.216 20.48 20.48 20.48h151.552c11.264 0 20.48-9.216 20.48-20.48s-9.216-20.48-20.48-20.48zM807.936 672.768h-151.552c-11.264 0-20.48 9.216-20.48 20.48s9.216 20.48 20.48 20.48h151.552c11.264 0 20.48-9.216 20.48-20.48s-9.216-20.48-20.48-20.48z" fill="#262435" p-id="2622"></path></svg>